<svg width="389" height="540" viewBox="0 0 389 540" fill="none" xmlns="http://www.w3.org/2000/svg">
<path d="M262.473 171.642C261.616 176.153 260.269 182.705 258.432 191.298C256.633 199.694 254.489 208.838 251.999 218.729C249.546 228.424 246.879 238.18 243.997 247.996C241.152 257.617 238.354 265.925 235.601 272.921C234.705 273.36 233.416 273.725 231.735 274.015C230.055 274.306 228.294 274.479 226.454 274.536C224.615 274.592 222.793 274.551 220.991 274.412C219.188 274.272 217.601 274.072 216.228 273.811C210.54 272.73 205.902 270.934 202.315 268.423C198.924 265.95 197.223 262.07 197.211 256.784C197.088 252.086 197.51 245.054 198.478 235.686C199.642 226.356 200.955 216.241 202.417 205.342C203.879 194.443 205.42 183.66 207.041 172.994C208.858 162.365 210.475 153.325 211.892 145.871C216.225 144.459 220.955 143.631 226.082 143.386C231.442 142.983 236.574 143.247 241.478 144.179C249.519 145.707 255.343 148.745 258.95 153.292C262.753 157.876 263.927 163.993 262.473 171.642ZM180.155 309.631C181.684 301.59 185.384 295.485 191.257 291.318C197.363 286.991 204.829 285.667 213.655 287.345C222.481 289.022 228.843 292.975 232.74 299.203C236.87 305.271 238.171 312.327 236.642 320.368C235.114 328.41 231.296 334.594 225.19 338.92C219.318 343.088 211.968 344.333 203.142 342.655C194.316 340.977 187.838 337.104 183.708 331.035C179.811 324.808 178.627 317.673 180.155 309.631Z" fill="#73D676"/>
<path d="M258.432 191.298L262.343 192.136L262.344 192.134L258.432 191.298ZM251.999 218.729L255.877 219.71L255.878 219.706L251.999 218.729ZM243.997 247.996L247.833 249.131L247.835 249.123L243.997 247.996ZM235.601 272.921L237.362 276.513L238.755 275.83L239.324 274.386L235.601 272.921ZM231.735 274.015L232.416 277.957L232.416 277.957L231.735 274.015ZM226.454 274.536L226.578 278.534L226.578 278.534L226.454 274.536ZM202.315 268.423L199.958 271.655L199.989 271.678L200.021 271.7L202.315 268.423ZM197.211 256.784L201.211 256.775L201.211 256.727L201.21 256.679L197.211 256.784ZM198.478 235.686L194.509 235.191L194.504 235.233L194.499 235.275L198.478 235.686ZM202.417 205.342L206.381 205.874L202.417 205.342ZM207.041 172.994L203.098 172.32L203.092 172.357L203.087 172.393L207.041 172.994ZM211.892 145.871L210.653 142.068L208.404 142.801L207.962 145.124L211.892 145.871ZM226.082 143.386L226.272 147.382L226.327 147.379L226.382 147.375L226.082 143.386ZM258.95 153.292L255.816 155.778L255.843 155.812L255.871 155.846L258.95 153.292ZM191.257 291.318L188.944 288.054L188.942 288.056L191.257 291.318ZM232.74 299.203L229.349 301.324L229.39 301.39L229.433 301.453L232.74 299.203ZM225.19 338.92L222.878 335.656L222.875 335.658L225.19 338.92ZM183.708 331.035L180.317 333.157L180.357 333.222L180.401 333.286L183.708 331.035ZM258.544 170.895C257.695 175.361 256.355 181.877 254.521 190.462L262.344 192.134C264.182 183.533 265.537 176.945 266.403 172.389L258.544 170.895ZM254.521 190.46C252.733 198.802 250.6 207.899 248.12 217.753L255.878 219.706C258.377 209.777 260.533 200.586 262.343 192.136L254.521 190.46ZM248.121 217.748C245.681 227.393 243.027 237.1 240.159 246.87L247.835 249.123C250.731 239.259 253.412 229.455 255.877 219.71L248.121 217.748ZM240.161 246.862C237.339 256.405 234.578 264.598 231.879 271.457L239.324 274.386C242.13 267.252 244.965 258.828 247.833 249.131L240.161 246.862ZM233.841 269.329C233.444 269.524 232.586 269.809 231.055 270.074L232.416 277.957C234.247 277.641 235.966 277.197 237.362 276.513L233.841 269.329ZM231.055 270.074C229.572 270.33 227.999 270.486 226.331 270.538L226.578 278.534C228.59 278.472 230.537 278.281 232.416 277.957L231.055 270.074ZM226.331 270.538C224.633 270.59 222.956 270.552 221.299 270.424L220.683 278.4C222.631 278.551 224.597 278.595 226.578 278.534L226.331 270.538ZM221.299 270.424C219.604 270.293 218.168 270.108 216.975 269.882L215.481 277.741C217.034 278.036 218.773 278.252 220.683 278.4L221.299 270.424ZM216.975 269.882C211.672 268.874 207.609 267.246 204.609 265.146L200.021 271.7C204.196 274.622 209.408 276.586 215.481 277.741L216.975 269.882ZM204.672 265.192C202.576 263.662 201.221 261.154 201.211 256.775L193.211 256.793C193.225 262.986 195.272 268.237 199.958 271.655L204.672 265.192ZM201.21 256.679C201.094 252.25 201.493 245.428 202.457 236.097L194.499 235.275C193.528 244.68 193.082 251.923 193.213 256.889L201.21 256.679ZM202.447 236.181C203.609 226.865 204.921 216.763 206.381 205.874L198.452 204.81C196.989 215.72 195.674 225.847 194.509 235.191L202.447 236.181ZM206.381 205.874C207.84 194.997 209.379 184.238 210.996 173.595L203.087 172.393C201.462 183.082 199.917 193.888 198.452 204.81L206.381 205.874ZM210.984 173.668C212.799 163.055 214.411 154.039 215.821 146.618L207.962 145.124C206.539 152.61 204.918 161.676 203.098 172.32L210.984 173.668ZM213.131 149.675C217.085 148.386 221.458 147.612 226.272 147.382L225.891 139.391C220.452 139.651 215.364 140.533 210.653 142.068L213.131 149.675ZM226.382 147.375C231.419 146.996 236.198 147.247 240.731 148.109L242.225 140.249C236.951 139.247 231.465 138.97 225.781 139.398L226.382 147.375ZM240.731 148.109C248.213 149.531 253.011 152.241 255.816 155.778L262.084 150.806C257.676 145.249 250.826 141.884 242.225 140.249L240.731 148.109ZM255.871 155.846C258.692 159.246 259.848 164.031 258.544 170.895L266.403 172.389C268.006 163.954 266.813 156.505 262.029 150.738L255.871 155.846ZM184.085 310.378C185.449 303.202 188.659 298.066 193.572 294.58L188.942 288.056C182.109 292.904 177.918 299.977 176.225 308.884L184.085 310.378ZM193.569 294.581C198.614 291.007 204.92 289.756 212.908 291.274L214.402 283.415C204.739 281.578 196.112 282.975 188.944 288.054L193.569 294.581ZM212.908 291.274C220.903 292.794 226.171 296.246 229.349 301.324L236.131 297.081C231.514 289.703 224.06 285.251 214.402 283.415L212.908 291.274ZM229.433 301.453C232.895 306.54 234.068 312.491 232.713 319.621L240.572 321.115C242.274 312.163 240.845 304.003 236.047 296.952L229.433 301.453ZM232.713 319.621C231.358 326.751 228.057 331.987 222.878 335.656L227.503 342.184C234.536 337.201 238.87 330.069 240.572 321.115L232.713 319.621ZM222.875 335.658C218.099 339.047 211.928 340.253 203.889 338.725L202.395 346.585C212.009 348.412 220.536 347.128 227.505 342.182L222.875 335.658ZM203.889 338.725C195.857 337.199 190.419 333.788 187.014 328.785L180.401 333.286C185.256 340.42 192.775 344.756 202.395 346.585L203.889 338.725ZM187.098 328.914C183.799 323.64 182.721 317.552 184.085 310.378L176.225 308.884C174.532 317.794 175.823 325.975 180.317 333.157L187.098 328.914Z" fill="#1C1C1C"/>
<path d="M237.997 181.236C237.139 185.747 235.792 192.299 233.956 200.892C232.156 209.288 230.012 218.432 227.522 228.323C225.07 238.018 222.403 247.774 219.521 257.59C216.676 267.211 213.877 275.519 211.125 282.515C210.228 282.954 208.94 283.319 207.259 283.609C205.578 283.899 203.818 284.073 201.978 284.13C200.138 284.186 198.317 284.145 196.514 284.006C194.712 283.866 193.124 283.666 191.751 283.405C186.063 282.324 181.426 280.528 177.838 278.017C174.447 275.544 172.746 271.664 172.735 266.378C172.612 261.68 173.034 254.648 174.001 245.28C175.165 235.95 176.478 225.835 177.94 214.936C179.402 204.036 180.944 193.254 182.565 182.588C184.382 171.959 185.999 162.918 187.415 155.465C191.748 154.053 196.478 153.225 201.605 152.98C206.966 152.577 212.098 152.841 217.001 153.773C225.043 155.301 230.867 158.339 234.473 162.886C238.276 167.47 239.451 173.586 237.997 181.236ZM155.679 319.225C157.207 311.184 160.908 305.079 166.78 300.912C172.887 296.585 180.353 295.261 189.179 296.938C198.005 298.616 204.366 302.569 208.263 308.797C212.393 314.865 213.694 321.921 212.166 329.962C210.637 338.004 206.82 344.188 200.714 348.514C194.841 352.682 187.492 353.927 178.666 352.249C169.839 350.571 163.361 346.698 159.231 340.629C155.334 334.401 154.15 327.267 155.679 319.225Z" fill="#73D676"/>
<path d="M233.956 200.892L237.867 201.73L237.867 201.728L233.956 200.892ZM227.522 228.323L231.4 229.304L231.401 229.299L227.522 228.323ZM219.521 257.59L223.356 258.725L223.359 258.717L219.521 257.59ZM211.125 282.515L212.885 286.107L214.279 285.424L214.847 283.979L211.125 282.515ZM207.259 283.609L207.939 287.551L207.939 287.551L207.259 283.609ZM201.978 284.13L202.101 288.128L202.101 288.128L201.978 284.13ZM177.838 278.017L175.481 281.249L175.513 281.272L175.545 281.294L177.838 278.017ZM172.735 266.378L176.735 266.369L176.735 266.321L176.733 266.273L172.735 266.378ZM174.001 245.28L170.032 244.785L170.027 244.827L170.023 244.869L174.001 245.28ZM177.94 214.936L181.905 215.468L177.94 214.936ZM182.565 182.588L178.622 181.914L178.616 181.95L178.61 181.987L182.565 182.588ZM187.415 155.465L186.176 151.662L183.927 152.395L183.486 154.718L187.415 155.465ZM201.605 152.98L201.796 156.976L201.851 156.973L201.905 156.969L201.605 152.98ZM234.473 162.886L231.34 165.372L231.367 165.406L231.395 165.44L234.473 162.886ZM166.78 300.912L164.468 297.648L164.465 297.649L166.78 300.912ZM208.263 308.797L204.872 310.918L204.913 310.983L204.956 311.047L208.263 308.797ZM200.714 348.514L198.401 345.25L198.399 345.252L200.714 348.514ZM159.231 340.629L155.84 342.751L155.881 342.816L155.924 342.88L159.231 340.629ZM234.067 180.489C233.218 184.954 231.879 191.471 230.044 200.056L237.867 201.728C239.706 193.127 241.06 186.539 241.926 181.983L234.067 180.489ZM230.044 200.053C228.257 208.396 226.123 217.493 223.643 227.347L231.401 229.299C233.9 219.371 236.056 210.18 237.867 201.73L230.044 200.053ZM223.644 227.342C221.205 236.987 218.551 246.694 215.683 256.464L223.359 258.717C226.254 248.853 228.935 239.049 231.4 229.304L223.644 227.342ZM215.685 256.456C212.863 265.999 210.101 274.192 207.403 281.051L214.847 283.979C217.654 276.846 220.489 268.422 223.356 258.725L215.685 256.456ZM209.365 278.923C208.967 279.118 208.11 279.403 206.578 279.668L207.939 287.551C209.77 287.235 211.49 286.791 212.885 286.107L209.365 278.923ZM206.578 279.668C205.096 279.924 203.522 280.08 201.855 280.132L202.101 288.128C204.113 288.066 206.06 287.875 207.939 287.551L206.578 279.668ZM201.855 280.131C200.156 280.184 198.479 280.146 196.823 280.018L196.206 287.994C198.155 288.144 200.12 288.189 202.101 288.128L201.855 280.131ZM196.823 280.018C195.127 279.886 193.691 279.702 192.498 279.475L191.004 287.335C192.557 287.63 194.296 287.846 196.206 287.994L196.823 280.018ZM192.498 279.475C187.196 278.468 183.132 276.84 180.132 274.74L175.545 281.294C179.719 284.216 184.931 286.18 191.004 287.335L192.498 279.475ZM180.196 274.785C178.099 273.256 176.744 270.748 176.735 266.369L168.735 266.386C168.748 272.58 170.796 277.831 175.481 281.249L180.196 274.785ZM176.733 266.273C176.617 261.844 177.016 255.021 177.98 245.691L170.023 244.869C169.051 254.274 168.606 261.517 168.736 266.483L176.733 266.273ZM177.971 245.775C179.133 236.459 180.444 226.357 181.905 215.468L173.976 214.404C172.512 225.314 171.198 235.441 170.032 244.785L177.971 245.775ZM181.905 215.468C183.364 204.591 184.902 193.831 186.519 183.189L178.61 181.987C176.986 192.676 175.441 203.482 173.976 214.404L181.905 215.468ZM186.507 183.262C188.322 172.648 189.934 163.633 191.345 156.212L183.486 154.718C182.063 162.203 180.442 171.27 178.622 181.914L186.507 183.262ZM188.655 159.268C192.608 157.98 196.981 157.206 201.796 156.976L201.414 148.985C195.975 149.244 190.888 150.127 186.176 151.662L188.655 159.268ZM201.905 156.969C206.943 156.59 211.721 156.841 216.254 157.702L217.748 149.843C212.474 148.841 206.989 148.564 201.305 148.991L201.905 156.969ZM216.254 157.702C223.736 159.125 228.534 161.835 231.34 165.372L237.607 160.4C233.199 154.843 226.349 151.478 217.748 149.843L216.254 157.702ZM231.395 165.44C234.216 168.84 235.372 173.625 234.067 180.489L241.926 181.983C243.53 173.548 242.336 166.099 237.552 160.332L231.395 165.44ZM159.608 319.972C160.972 312.796 164.183 307.66 169.095 304.174L164.465 297.649C157.633 302.498 153.442 309.571 151.749 318.478L159.608 319.972ZM169.093 304.175C174.137 300.601 180.443 299.35 188.432 300.868L189.926 293.009C180.262 291.172 171.636 292.569 164.468 297.648L169.093 304.175ZM188.432 300.868C196.426 302.388 201.695 305.84 204.872 310.918L211.654 306.675C207.038 299.297 199.584 294.845 189.926 293.009L188.432 300.868ZM204.956 311.047C208.419 316.134 209.592 322.085 208.236 329.215L216.095 330.709C217.797 321.757 216.368 313.596 211.57 306.546L204.956 311.047ZM208.236 329.215C206.881 336.345 203.58 341.581 198.401 345.25L203.026 351.778C210.06 346.795 214.394 339.663 216.095 330.709L208.236 329.215ZM198.399 345.252C193.623 348.641 187.451 349.847 179.412 348.319L177.919 356.179C187.532 358.006 196.059 356.722 203.029 351.776L198.399 345.252ZM179.412 348.319C171.38 346.793 165.943 343.382 162.538 338.379L155.924 342.88C160.78 350.014 168.298 354.35 177.919 356.179L179.412 348.319ZM162.622 338.507C159.322 333.234 158.245 327.146 159.608 319.972L151.749 318.478C150.055 327.387 151.346 335.569 155.84 342.751L162.622 338.507Z" fill="#1C1C1C"/>
<path d="M213.521 190.83C212.664 195.341 211.317 201.893 209.48 210.485C207.681 218.882 205.536 228.026 203.047 237.917C200.594 247.612 197.927 257.368 195.045 267.184C192.2 276.805 189.402 285.113 186.649 292.109C185.753 292.548 184.464 292.913 182.783 293.203C181.102 293.493 179.342 293.667 177.502 293.723C175.662 293.78 173.841 293.739 172.039 293.599C170.236 293.46 168.649 293.26 167.276 292.999C161.588 291.918 156.95 290.122 153.363 287.611C149.972 285.137 148.271 281.258 148.259 275.972C148.136 271.274 148.558 264.242 149.526 254.874C150.69 245.544 152.003 235.429 153.465 224.53C154.927 213.63 156.468 202.848 158.089 192.182C159.906 181.553 161.523 172.512 162.94 165.059C167.273 163.647 172.002 162.819 177.13 162.574C182.49 162.17 187.622 162.435 192.525 163.367C200.567 164.895 206.391 167.933 209.998 172.48C213.801 177.064 214.975 183.18 213.521 190.83ZM131.203 328.819C132.731 320.778 136.432 314.673 142.305 310.505C148.411 306.179 155.877 304.855 164.703 306.532C173.529 308.21 179.891 312.163 183.788 318.39C187.918 324.459 189.219 331.514 187.69 339.556C186.162 347.598 182.344 353.782 176.238 358.108C170.365 362.275 163.016 363.52 154.19 361.843C145.364 360.165 138.886 356.292 134.755 350.223C130.859 343.995 129.674 336.861 131.203 328.819Z" fill="#3FB9FF"/>
<path d="M209.48 210.485L213.391 211.324L213.392 211.321L209.48 210.485ZM203.047 237.917L206.925 238.898L206.926 238.893L203.047 237.917ZM195.045 267.184L198.881 268.318L198.883 268.311L195.045 267.184ZM186.649 292.109L188.41 295.701L189.803 295.018L190.372 293.573L186.649 292.109ZM182.783 293.203L183.464 297.145L183.464 297.145L182.783 293.203ZM177.502 293.723L177.626 297.722L177.626 297.722L177.502 293.723ZM153.363 287.611L151.006 290.843L151.037 290.866L151.069 290.888L153.363 287.611ZM148.259 275.972L152.259 275.963L152.259 275.915L152.258 275.867L148.259 275.972ZM149.526 254.874L145.557 254.379L145.551 254.421L145.547 254.463L149.526 254.874ZM153.465 224.53L157.429 225.061L153.465 224.53ZM158.089 192.182L154.146 191.508L154.14 191.544L154.135 191.581L158.089 192.182ZM162.94 165.059L161.7 161.256L159.452 161.989L159.01 164.312L162.94 165.059ZM177.13 162.574L177.32 166.57L177.375 166.567L177.43 166.563L177.13 162.574ZM209.998 172.48L206.864 174.965L206.891 175L206.919 175.033L209.998 172.48ZM142.305 310.505L139.992 307.242L139.99 307.243L142.305 310.505ZM183.788 318.39L180.397 320.512L180.438 320.577L180.481 320.641L183.788 318.39ZM176.238 358.108L173.926 354.844L173.923 354.846L176.238 358.108ZM134.755 350.223L131.364 352.345L131.405 352.41L131.449 352.474L134.755 350.223ZM209.591 190.083C208.743 194.548 207.403 201.065 205.568 209.649L213.392 211.321C215.23 202.721 216.585 196.133 217.451 191.577L209.591 190.083ZM205.569 209.647C203.781 217.99 201.648 227.087 199.168 236.941L206.926 238.893C209.425 228.965 211.581 219.774 213.391 211.324L205.569 209.647ZM199.169 236.936C196.729 246.581 194.075 256.288 191.207 266.057L198.883 268.311C201.779 258.447 204.459 248.643 206.925 238.898L199.169 236.936ZM191.209 266.05C188.387 275.593 185.625 283.786 182.927 290.645L190.372 293.573C193.178 286.44 196.013 278.016 198.881 268.318L191.209 266.05ZM184.889 288.517C184.492 288.712 183.634 288.997 182.103 289.261L183.464 297.145C185.294 296.829 187.014 296.385 188.41 295.701L184.889 288.517ZM182.103 289.261C180.62 289.517 179.046 289.674 177.379 289.725L177.626 297.722C179.638 297.66 181.585 297.469 183.464 297.145L182.103 289.261ZM177.379 289.725C175.681 289.778 174.004 289.739 172.347 289.611L171.73 297.588C173.679 297.738 175.644 297.783 177.626 297.722L177.379 289.725ZM172.347 289.611C170.652 289.48 169.216 289.296 168.023 289.069L166.529 296.929C168.081 297.224 169.821 297.44 171.73 297.588L172.347 289.611ZM168.023 289.069C162.72 288.061 158.656 286.434 155.657 284.334L151.069 290.888C155.244 293.81 160.455 295.774 166.529 296.929L168.023 289.069ZM155.72 284.379C153.624 282.85 152.269 280.342 152.259 275.963L144.259 275.98C144.273 282.174 146.32 287.425 151.006 290.843L155.72 284.379ZM152.258 275.867C152.142 271.438 152.541 264.615 153.505 255.285L145.547 254.463C144.576 263.868 144.13 271.111 144.261 276.077L152.258 275.867ZM153.495 255.369C154.657 246.053 155.968 235.951 157.429 225.061L149.5 223.998C148.037 234.907 146.722 245.035 145.557 254.379L153.495 255.369ZM157.429 225.061C158.888 214.185 160.426 203.425 162.044 192.783L154.135 191.581C152.51 202.27 150.965 213.076 149.5 223.998L157.429 225.061ZM162.032 192.856C163.846 182.242 165.459 173.227 166.869 165.806L159.01 164.312C157.587 171.797 155.966 180.864 154.146 191.508L162.032 192.856ZM164.179 168.862C168.133 167.574 172.506 166.799 177.32 166.57L176.939 158.579C171.499 158.838 166.412 159.721 161.7 161.256L164.179 168.862ZM177.43 166.563C182.467 166.183 187.246 166.435 191.778 167.296L193.272 159.437C187.999 158.435 182.513 158.157 176.829 158.585L177.43 166.563ZM191.778 167.296C199.26 168.718 204.059 171.429 206.864 174.965L213.132 169.994C208.724 164.437 201.874 161.072 193.272 159.437L191.778 167.296ZM206.919 175.033C209.74 178.434 210.896 183.219 209.591 190.083L217.451 191.577C219.054 183.142 217.861 175.693 213.076 169.926L206.919 175.033ZM135.133 329.566C136.497 322.39 139.707 317.254 144.62 313.768L139.99 307.243C133.157 312.092 128.966 319.165 127.273 328.072L135.133 329.566ZM144.617 313.769C149.662 310.195 155.967 308.944 163.956 310.462L165.45 302.603C155.787 300.766 147.16 302.163 139.992 307.242L144.617 313.769ZM163.956 310.462C171.951 311.982 177.219 315.434 180.397 320.512L187.179 316.269C182.562 308.891 175.108 304.438 165.45 302.603L163.956 310.462ZM180.481 320.641C183.943 325.728 185.116 331.678 183.761 338.809L191.62 340.303C193.322 331.35 191.893 323.19 187.094 316.14L180.481 320.641ZM183.761 338.809C182.405 345.938 179.105 351.175 173.926 354.844L178.551 361.372C185.584 356.388 189.918 349.257 191.62 340.303L183.761 338.809ZM173.923 354.846C169.147 358.235 162.976 359.441 154.937 357.913L153.443 365.772C163.057 367.6 171.584 366.316 178.553 361.37L173.923 354.846ZM154.937 357.913C146.905 356.386 141.467 352.976 138.062 347.973L131.449 352.474C136.304 359.608 143.823 363.944 153.443 365.772L154.937 357.913ZM138.146 348.101C134.847 342.828 133.769 336.74 135.133 329.566L127.273 328.072C125.58 336.981 126.871 345.163 131.364 352.345L138.146 348.101Z" fill="#1C1C1C"/>
</svg>
