<svg width="389" height="540" viewBox="0 0 389 540" fill="none" xmlns="http://www.w3.org/2000/svg">
<path d="M262.474 171.642C261.616 176.153 260.269 182.705 258.433 191.298C256.634 199.694 254.489 208.838 252 218.729C249.547 228.424 246.88 238.18 243.998 247.997C241.153 257.617 238.355 265.925 235.602 272.921C234.706 273.361 233.417 273.725 231.736 274.016C230.055 274.306 228.295 274.479 226.455 274.536C224.615 274.593 222.794 274.551 220.992 274.412C219.189 274.273 217.601 274.072 216.228 273.811C210.541 272.73 205.903 270.934 202.316 268.423C198.925 265.95 197.223 262.07 197.212 256.784C197.089 252.087 197.511 245.054 198.479 235.687C199.643 226.356 200.956 216.241 202.418 205.342C203.88 194.443 205.421 183.66 207.042 172.994C208.859 162.366 210.476 153.325 211.893 145.872C216.225 144.46 220.955 143.631 226.082 143.387C231.443 142.983 236.575 143.247 241.478 144.179C249.52 145.708 255.344 148.745 258.951 153.292C262.753 157.876 263.928 163.993 262.474 171.642ZM180.156 309.632C181.684 301.59 185.385 295.485 191.258 291.318C197.364 286.992 204.83 285.667 213.656 287.345C222.482 289.022 228.844 292.975 232.741 299.203C236.871 305.272 238.172 312.327 236.643 320.368C235.115 328.41 231.297 334.594 225.191 338.92C219.318 343.088 211.969 344.333 203.143 342.655C194.317 340.978 187.839 337.104 183.708 331.035C179.811 324.808 178.627 317.673 180.156 309.632Z" fill="#73D676"/>
<path d="M258.433 191.298L262.344 192.136L262.345 192.134L258.433 191.298ZM252 218.729L255.877 219.71L255.879 219.706L252 218.729ZM243.998 247.997L247.834 249.131L247.836 249.123L243.998 247.997ZM235.602 272.921L237.362 276.513L238.756 275.83L239.324 274.386L235.602 272.921ZM231.736 274.016L232.417 277.957L232.417 277.957L231.736 274.016ZM226.455 274.536L226.578 278.534L226.578 278.534L226.455 274.536ZM202.316 268.423L199.958 271.655L199.99 271.678L200.022 271.7L202.316 268.423ZM197.212 256.784L201.212 256.776L201.212 256.727L201.211 256.679L197.212 256.784ZM198.479 235.687L194.51 235.191L194.504 235.233L194.5 235.275L198.479 235.687ZM202.418 205.342L206.382 205.874L202.418 205.342ZM207.042 172.994L203.099 172.32L203.093 172.357L203.087 172.393L207.042 172.994ZM211.893 145.872L210.653 142.068L208.405 142.801L207.963 145.125L211.893 145.872ZM226.082 143.387L226.273 147.382L226.328 147.379L226.383 147.375L226.082 143.387ZM258.951 153.292L255.817 155.778L255.844 155.812L255.872 155.846L258.951 153.292ZM191.258 291.318L188.945 288.054L188.943 288.056L191.258 291.318ZM232.741 299.203L229.35 301.325L229.39 301.39L229.434 301.453L232.741 299.203ZM225.191 338.92L222.879 335.657L222.876 335.658L225.191 338.92ZM183.708 331.035L180.317 333.157L180.358 333.222L180.401 333.286L183.708 331.035ZM258.544 170.895C257.695 175.361 256.356 181.877 254.521 190.462L262.345 192.134C264.183 183.533 265.537 176.946 266.404 172.389L258.544 170.895ZM254.522 190.46C252.734 198.802 250.601 207.9 248.121 217.753L255.879 219.706C258.378 209.777 260.533 200.586 262.344 192.136L254.522 190.46ZM248.122 217.748C245.682 227.393 243.028 237.101 240.16 246.87L247.836 249.123C250.732 239.26 253.412 229.455 255.877 219.71L248.122 217.748ZM240.162 246.862C237.34 256.406 234.578 264.598 231.88 271.457L239.324 274.386C242.131 267.253 244.966 258.829 247.834 249.131L240.162 246.862ZM233.842 269.33C233.445 269.524 232.587 269.81 231.056 270.074L232.417 277.957C234.247 277.641 235.967 277.197 237.362 276.513L233.842 269.33ZM231.056 270.074C229.573 270.33 227.999 270.486 226.332 270.538L226.578 278.534C228.59 278.472 230.538 278.282 232.417 277.957L231.056 270.074ZM226.332 270.538C224.633 270.59 222.956 270.552 221.3 270.424L220.683 278.4C222.632 278.551 224.597 278.595 226.578 278.534L226.332 270.538ZM221.3 270.424C219.605 270.293 218.169 270.109 216.975 269.882L215.482 277.741C217.034 278.036 218.774 278.252 220.683 278.4L221.3 270.424ZM216.975 269.882C211.673 268.874 207.609 267.246 204.609 265.146L200.022 271.7C204.197 274.622 209.408 276.587 215.482 277.741L216.975 269.882ZM204.673 265.192C202.576 263.662 201.222 261.154 201.212 256.776L193.212 256.793C193.225 262.986 195.273 268.237 199.958 271.655L204.673 265.192ZM201.211 256.679C201.095 252.25 201.494 245.428 202.458 236.098L194.5 235.275C193.528 244.68 193.083 251.923 193.213 256.889L201.211 256.679ZM202.448 236.182C203.61 226.865 204.921 216.763 206.382 205.874L198.453 204.81C196.99 215.72 195.675 225.847 194.51 235.191L202.448 236.182ZM206.382 205.874C207.841 194.997 209.379 184.238 210.997 173.595L203.087 172.393C201.463 183.083 199.918 193.888 198.453 204.81L206.382 205.874ZM210.985 173.668C212.799 163.055 214.412 154.04 215.822 146.618L207.963 145.125C206.54 152.61 204.919 161.676 203.099 172.32L210.985 173.668ZM213.132 149.675C217.086 148.386 221.458 147.612 226.273 147.382L225.892 139.391C220.452 139.651 215.365 140.533 210.653 142.068L213.132 149.675ZM226.383 147.375C231.42 146.996 236.198 147.247 240.731 148.109L242.225 140.249C236.951 139.247 231.466 138.97 225.782 139.398L226.383 147.375ZM240.731 148.109C248.213 149.531 253.011 152.241 255.817 155.778L262.084 150.806C257.677 145.249 250.826 141.884 242.225 140.249L240.731 148.109ZM255.872 155.846C258.693 159.247 259.849 164.031 258.544 170.895L266.404 172.389C268.007 163.954 266.814 156.506 262.029 150.738L255.872 155.846ZM184.085 310.378C185.45 303.202 188.66 298.066 193.573 294.58L188.943 288.056C182.11 292.905 177.919 299.978 176.226 308.885L184.085 310.378ZM193.57 294.582C198.615 291.008 204.92 289.756 212.909 291.274L214.403 283.415C204.74 281.578 196.113 282.975 188.945 288.054L193.57 294.582ZM212.909 291.274C220.903 292.794 226.172 296.247 229.35 301.325L236.131 297.081C231.515 289.704 224.061 285.251 214.403 283.415L212.909 291.274ZM229.434 301.453C232.896 306.541 234.069 312.491 232.713 319.622L240.573 321.115C242.274 312.163 240.846 304.003 236.047 296.952L229.434 301.453ZM232.713 319.622C231.358 326.751 228.058 331.987 222.879 335.657L227.504 342.184C234.537 337.201 238.871 330.069 240.573 321.115L232.713 319.622ZM222.876 335.658C218.1 339.048 211.928 340.254 203.89 338.726L202.396 346.585C212.009 348.412 220.537 347.128 227.506 342.182L222.876 335.658ZM203.89 338.726C195.858 337.199 190.42 333.788 187.015 328.785L180.401 333.286C185.257 340.421 192.776 344.756 202.396 346.585L203.89 338.726ZM187.099 328.914C183.799 323.64 182.722 317.552 184.085 310.378L176.226 308.885C174.533 317.794 175.823 325.975 180.317 333.157L187.099 328.914Z" fill="#1C1C1C"/>
<path d="M237.998 181.236C237.14 185.747 235.793 192.299 233.957 200.892C232.158 209.288 230.013 218.432 227.523 228.323C225.071 238.018 222.404 247.774 219.522 257.591C216.677 267.211 213.878 275.519 211.126 282.515C210.23 282.955 208.941 283.319 207.26 283.609C205.579 283.9 203.819 284.073 201.979 284.13C200.139 284.187 198.318 284.145 196.516 284.006C194.713 283.866 193.125 283.666 191.752 283.405C186.064 282.324 181.427 280.528 177.84 278.017C174.449 275.544 172.747 271.664 172.736 266.378C172.613 261.68 173.035 254.648 174.003 245.28C175.167 235.95 176.479 225.835 177.941 214.936C179.404 204.037 180.945 193.254 182.566 182.588C184.383 171.959 186 162.919 187.416 155.465C191.749 154.054 196.479 153.225 201.606 152.98C206.967 152.577 212.099 152.841 217.002 153.773C225.044 155.301 230.868 158.339 234.475 162.886C238.277 167.47 239.452 173.587 237.998 181.236ZM155.68 319.225C157.208 311.184 160.909 305.079 166.782 300.912C172.888 296.585 180.354 295.261 189.18 296.939C198.006 298.616 204.368 302.569 208.264 308.797C212.395 314.866 213.696 321.921 212.167 329.962C210.638 338.004 206.821 344.188 200.715 348.514C194.842 352.682 187.493 353.927 178.667 352.249C169.841 350.571 163.362 346.698 159.232 340.629C155.335 334.402 154.151 327.267 155.68 319.225Z" fill="#73D676"/>
<path d="M233.957 200.892L237.868 201.73L237.869 201.728L233.957 200.892ZM227.523 228.323L231.401 229.304L231.402 229.3L227.523 228.323ZM219.522 257.591L223.358 258.725L223.36 258.717L219.522 257.591ZM211.126 282.515L212.886 286.107L214.28 285.424L214.848 283.98L211.126 282.515ZM207.26 283.609L207.941 287.551L207.941 287.551L207.26 283.609ZM201.979 284.13L202.102 288.128L202.102 288.128L201.979 284.13ZM177.84 278.017L175.482 281.249L175.514 281.272L175.546 281.294L177.84 278.017ZM172.736 266.378L176.736 266.369L176.736 266.321L176.735 266.273L172.736 266.378ZM174.003 245.28L170.033 244.785L170.028 244.827L170.024 244.869L174.003 245.28ZM177.941 214.936L181.906 215.468L177.941 214.936ZM182.566 182.588L178.623 181.914L178.617 181.951L178.611 181.987L182.566 182.588ZM187.416 155.465L186.177 151.662L183.928 152.395L183.487 154.718L187.416 155.465ZM201.606 152.98L201.797 156.976L201.852 156.973L201.907 156.969L201.606 152.98ZM234.475 162.886L231.341 165.372L231.368 165.406L231.396 165.44L234.475 162.886ZM166.782 300.912L164.469 297.648L164.467 297.65L166.782 300.912ZM208.264 308.797L204.874 310.918L204.914 310.984L204.958 311.047L208.264 308.797ZM200.715 348.514L198.403 345.25L198.4 345.252L200.715 348.514ZM159.232 340.629L155.841 342.751L155.882 342.816L155.925 342.88L159.232 340.629ZM234.068 180.489C233.219 184.955 231.88 191.471 230.045 200.056L237.869 201.728C239.707 193.127 241.061 186.54 241.927 181.983L234.068 180.489ZM230.046 200.054C228.258 208.396 226.125 217.493 223.644 227.347L231.402 229.3C233.902 219.371 236.057 210.18 237.868 201.73L230.046 200.054ZM223.646 227.342C221.206 236.987 218.552 246.694 215.684 256.464L223.36 258.717C226.256 248.854 228.936 239.049 231.401 229.304L223.646 227.342ZM215.686 256.456C212.864 265.999 210.102 274.192 207.404 281.051L214.848 283.98C217.655 276.846 220.49 268.423 223.358 258.725L215.686 256.456ZM209.366 278.923C208.969 279.118 208.111 279.403 206.58 279.668L207.941 287.551C209.771 287.235 211.491 286.791 212.886 286.107L209.366 278.923ZM206.58 279.668C205.097 279.924 203.523 280.08 201.856 280.132L202.102 288.128C204.114 288.066 206.062 287.875 207.941 287.551L206.58 279.668ZM201.856 280.132C200.157 280.184 198.48 280.146 196.824 280.018L196.207 287.994C198.156 288.145 200.121 288.189 202.102 288.128L201.856 280.132ZM196.824 280.018C195.128 279.887 193.692 279.702 192.499 279.476L191.005 287.335C192.558 287.63 194.298 287.846 196.207 287.994L196.824 280.018ZM192.499 279.476C187.197 278.468 183.133 276.84 180.133 274.74L175.546 281.294C179.721 284.216 184.932 286.181 191.005 287.335L192.499 279.476ZM180.197 274.786C178.1 273.256 176.745 270.748 176.736 266.369L168.736 266.387C168.749 272.58 170.797 277.831 175.482 281.249L180.197 274.786ZM176.735 266.273C176.618 261.844 177.018 255.022 177.982 245.691L170.024 244.869C169.052 254.274 168.607 261.517 168.737 266.483L176.735 266.273ZM177.972 245.775C179.134 236.459 180.445 226.357 181.906 215.468L173.977 214.404C172.514 225.314 171.199 235.441 170.033 244.785L177.972 245.775ZM181.906 215.468C183.365 204.591 184.903 193.832 186.521 183.189L178.611 181.987C176.987 192.677 175.442 203.482 173.977 214.404L181.906 215.468ZM186.509 183.262C188.323 172.649 189.936 163.634 191.346 156.212L183.487 154.718C182.064 162.204 180.443 171.27 178.623 181.914L186.509 183.262ZM188.656 159.269C192.61 157.98 196.982 157.206 201.797 156.976L201.416 148.985C195.976 149.245 190.889 150.127 186.177 151.662L188.656 159.269ZM201.907 156.969C206.944 156.59 211.722 156.841 216.255 157.703L217.749 149.843C212.475 148.841 206.99 148.564 201.306 148.992L201.907 156.969ZM216.255 157.703C223.737 159.125 228.535 161.835 231.341 165.372L237.608 160.4C233.201 154.843 226.35 151.478 217.749 149.843L216.255 157.703ZM231.396 165.44C234.217 168.84 235.373 173.625 234.068 180.489L241.927 181.983C243.531 173.548 242.338 166.1 237.553 160.332L231.396 165.44ZM159.609 319.972C160.973 312.796 164.184 307.66 169.097 304.174L164.467 297.65C157.634 302.498 153.443 309.572 151.75 318.478L159.609 319.972ZM169.094 304.176C174.138 300.601 180.444 299.35 188.433 300.868L189.927 293.009C180.263 291.172 171.637 292.569 164.469 297.648L169.094 304.176ZM188.433 300.868C196.427 302.388 201.696 305.841 204.874 310.918L211.655 306.675C207.039 299.297 199.585 294.845 189.927 293.009L188.433 300.868ZM204.958 311.047C208.42 316.134 209.593 322.085 208.237 329.215L216.097 330.709C217.798 321.757 216.37 313.597 211.571 306.546L204.958 311.047ZM208.237 329.215C206.882 336.345 203.581 341.581 198.403 345.25L203.028 351.778C210.061 346.795 214.395 339.663 216.097 330.709L208.237 329.215ZM198.4 345.252C193.624 348.642 187.452 349.847 179.414 348.319L177.92 356.179C187.533 358.006 196.061 356.722 203.03 351.776L198.4 345.252ZM179.414 348.319C171.382 346.793 165.944 343.382 162.539 338.379L155.925 342.88C160.781 350.015 168.3 354.35 177.92 356.179L179.414 348.319ZM162.623 338.508C159.323 333.234 158.246 327.146 159.609 319.972L151.75 318.478C150.057 327.388 151.347 335.569 155.841 342.751L162.623 338.508Z" fill="#1C1C1C"/>
<path d="M213.521 190.83C212.664 195.341 211.317 201.893 209.48 210.486C207.681 218.882 205.537 228.026 203.047 237.917C200.594 247.612 197.927 257.368 195.045 267.184C192.2 276.805 189.402 285.113 186.65 292.109C185.753 292.548 184.464 292.913 182.784 293.203C181.103 293.493 179.342 293.667 177.502 293.724C175.663 293.78 173.842 293.739 172.039 293.6C170.237 293.46 168.649 293.26 167.276 292.999C161.588 291.918 156.95 290.122 153.363 287.611C149.972 285.138 148.271 281.258 148.259 275.972C148.136 271.274 148.558 264.242 149.526 254.874C150.69 245.544 152.003 235.429 153.465 224.53C154.927 213.631 156.468 202.848 158.089 192.182C159.906 181.553 161.523 172.512 162.94 165.059C167.273 163.647 172.003 162.819 177.13 162.574C182.49 162.171 187.622 162.435 192.526 163.367C200.567 164.895 206.391 167.933 209.998 172.48C213.801 177.064 214.975 183.181 213.521 190.83ZM131.203 328.819C132.732 320.778 136.432 314.673 142.305 310.506C148.411 306.179 155.877 304.855 164.703 306.533C173.53 308.21 179.891 312.163 183.788 318.391C187.918 324.459 189.219 331.515 187.69 339.556C186.162 347.598 182.345 353.782 176.238 358.108C170.366 362.276 163.016 363.521 154.19 361.843C145.364 360.165 138.886 356.292 134.756 350.223C130.859 343.996 129.675 336.861 131.203 328.819Z" fill="#F5487E"/>
<path d="M209.48 210.486L213.392 211.324L213.392 211.322L209.48 210.486ZM203.047 237.917L206.925 238.898L206.926 238.894L203.047 237.917ZM195.045 267.184L198.881 268.319L198.883 268.311L195.045 267.184ZM186.65 292.109L188.41 295.701L189.804 295.018L190.372 293.574L186.65 292.109ZM182.784 293.203L183.464 297.145L183.464 297.145L182.784 293.203ZM177.502 293.724L177.626 297.722L177.626 297.722L177.502 293.724ZM153.363 287.611L151.006 290.843L151.037 290.866L151.069 290.888L153.363 287.611ZM148.259 275.972L152.259 275.963L152.259 275.915L152.258 275.867L148.259 275.972ZM149.526 254.874L145.557 254.379L145.552 254.421L145.547 254.463L149.526 254.874ZM153.465 224.53L157.429 225.062L153.465 224.53ZM158.089 192.182L154.147 191.508L154.14 191.544L154.135 191.581L158.089 192.182ZM162.94 165.059L161.701 161.256L159.452 161.989L159.01 164.312L162.94 165.059ZM177.13 162.574L177.321 166.57L177.375 166.567L177.43 166.563L177.13 162.574ZM209.998 172.48L206.864 174.966L206.891 175L206.919 175.034L209.998 172.48ZM142.305 310.506L139.993 307.242L139.99 307.244L142.305 310.506ZM183.788 318.391L180.397 320.512L180.438 320.578L180.481 320.641L183.788 318.391ZM176.238 358.108L173.926 354.844L173.924 354.846L176.238 358.108ZM134.756 350.223L131.365 352.345L131.406 352.41L131.449 352.474L134.756 350.223ZM209.592 190.083C208.743 194.549 207.403 201.065 205.569 209.65L213.392 211.322C215.23 202.721 216.585 196.133 217.451 191.577L209.592 190.083ZM205.569 209.648C203.781 217.99 201.648 227.087 199.168 236.941L206.926 238.894C209.425 228.965 211.581 219.774 213.392 211.324L205.569 209.648ZM199.169 236.936C196.729 246.581 194.075 256.288 191.207 266.058L198.883 268.311C201.779 258.447 204.46 248.643 206.925 238.898L199.169 236.936ZM191.209 266.05C188.387 275.593 185.626 283.786 182.927 290.645L190.372 293.574C193.178 286.44 196.013 278.016 198.881 268.319L191.209 266.05ZM184.889 288.517C184.492 288.712 183.634 288.997 182.103 289.262L183.464 297.145C185.295 296.829 187.014 296.385 188.41 295.701L184.889 288.517ZM182.103 289.262C180.62 289.518 179.047 289.674 177.379 289.726L177.626 297.722C179.638 297.66 181.585 297.469 183.464 297.145L182.103 289.262ZM177.379 289.726C175.681 289.778 174.004 289.74 172.347 289.612L171.731 297.588C173.679 297.738 175.645 297.783 177.626 297.722L177.379 289.726ZM172.347 289.612C170.652 289.48 169.216 289.296 168.023 289.069L166.529 296.929C168.082 297.224 169.821 297.44 171.731 297.588L172.347 289.612ZM168.023 289.069C162.72 288.062 158.657 286.434 155.657 284.334L151.069 290.888C155.244 293.81 160.456 295.774 166.529 296.929L168.023 289.069ZM155.72 284.38C153.624 282.85 152.269 280.342 152.259 275.963L144.259 275.98C144.273 282.174 146.32 287.425 151.006 290.843L155.72 284.38ZM152.258 275.867C152.142 271.438 152.541 264.616 153.505 255.285L145.547 254.463C144.576 263.868 144.131 271.111 144.261 276.077L152.258 275.867ZM153.495 255.369C154.657 246.053 155.969 235.951 157.429 225.062L149.5 223.998C148.037 234.908 146.722 245.035 145.557 254.379L153.495 255.369ZM157.429 225.062C158.888 214.185 160.427 203.425 162.044 192.783L154.135 191.581C152.51 202.27 150.966 213.076 149.5 223.998L157.429 225.062ZM162.032 192.856C163.847 182.243 165.459 173.227 166.87 165.806L159.01 164.312C157.588 171.797 155.966 180.864 154.147 191.508L162.032 192.856ZM164.179 168.862C168.133 167.574 172.506 166.8 177.321 166.57L176.939 158.579C171.5 158.839 166.412 159.721 161.701 161.256L164.179 168.862ZM177.43 166.563C182.467 166.184 187.246 166.435 191.779 167.296L193.273 159.437C187.999 158.435 182.513 158.158 176.829 158.586L177.43 166.563ZM191.779 167.296C199.261 168.719 204.059 171.429 206.864 174.966L213.132 169.994C208.724 164.437 201.874 161.072 193.273 159.437L191.779 167.296ZM206.919 175.034C209.741 178.434 210.896 183.219 209.592 190.083L217.451 191.577C219.054 183.142 217.861 175.693 213.077 169.926L206.919 175.034ZM135.133 329.566C136.497 322.39 139.707 317.254 144.62 313.768L139.99 307.244C133.157 312.092 128.967 319.165 127.274 328.072L135.133 329.566ZM144.618 313.769C149.662 310.195 155.968 308.944 163.957 310.462L165.45 302.603C155.787 300.766 147.16 302.163 139.993 307.242L144.618 313.769ZM163.957 310.462C171.951 311.982 177.22 315.434 180.397 320.512L187.179 316.269C182.563 308.891 175.108 304.439 165.45 302.603L163.957 310.462ZM180.481 320.641C183.943 325.728 185.116 331.679 183.761 338.809L191.62 340.303C193.322 331.351 191.893 323.191 187.095 316.14L180.481 320.641ZM183.761 338.809C182.406 345.939 179.105 351.175 173.926 354.844L178.551 361.372C185.584 356.389 189.918 349.257 191.62 340.303L183.761 338.809ZM173.924 354.846C169.147 358.235 162.976 359.441 154.937 357.913L153.443 365.773C163.057 367.6 171.584 366.316 178.553 361.37L173.924 354.846ZM154.937 357.913C146.905 356.387 141.467 352.976 138.062 347.973L131.449 352.474C136.304 359.608 143.823 363.944 153.443 365.773L154.937 357.913ZM138.147 348.101C134.847 342.828 133.769 336.74 135.133 329.566L127.274 328.072C125.58 336.982 126.871 345.163 131.365 352.345L138.147 348.101Z" fill="#1C1C1C"/>
</svg>
