<svg width="64" height="48" viewBox="0 0 64 48" fill="none" xmlns="http://www.w3.org/2000/svg">
<path fill-rule="evenodd" clip-rule="evenodd" d="M4.5171 0.121161C2.3715 0.536117 0.547616 2.36938 0.131795 4.5291C-0.0439317 5.44148 -0.0439317 42.5418 0.131795 43.4542C0.55749 45.665 2.37025 47.4504 4.61496 47.8696C5.54534 48.0435 58.4547 48.0435 59.385 47.8696C61.6297 47.4504 63.4425 45.665 63.8682 43.4542C64.0439 42.5418 64.0439 5.44148 63.8682 4.5291C63.4425 2.3183 61.6297 0.532916 59.385 0.113652C58.5484 -0.0426797 5.32624 -0.035417 4.5171 0.121161ZM44.8501 16.1978L32.1411 28.7148L30.352 27.0294C29.3681 26.1024 23.5855 20.4711 17.5019 14.5156L6.44084 3.68725L31.9999 3.68404L57.559 3.68084L44.8501 16.1978ZM13.2987 15.5961L21.7813 23.9004L12.7675 32.778L3.7537 41.6556V24.008V6.36027L4.28488 6.82606C4.57696 7.08223 8.63318 11.0288 13.2987 15.5961ZM60.2463 24.0223V41.6556L51.279 32.8238L42.3115 23.9919L51.2474 15.1904C56.1621 10.3496 60.1973 6.38895 60.2147 6.38895C60.2321 6.38895 60.2463 14.3239 60.2463 24.0223ZM27.6891 29.6625C29.407 31.3597 31.0214 32.8553 31.2763 32.9861C31.8416 33.2759 32.3813 33.2888 32.9124 33.0254C33.1324 32.9162 34.7331 31.4352 36.4698 29.7342L39.6271 26.6415L48.5931 35.4719L57.5589 44.3025H32.0003H6.44147L15.4397 35.4396C20.3886 30.565 24.4665 26.5767 24.5016 26.5767C24.5366 26.5767 25.971 27.9653 27.6891 29.6625Z" fill="white"/>
</svg>
