<svg width="48" height="48" viewBox="0 0 48 48" fill="none" xmlns="http://www.w3.org/2000/svg">
<path fill-rule="evenodd" clip-rule="evenodd" d="M20.6988 0.167664C15.4356 0.8729 10.214 3.5663 6.53957 7.47122C2.96047 11.2748 0.675123 16.1983 0.111327 21.3202C-0.0371089 22.668 -0.0371089 25.3358 0.111327 26.6836C0.704096 32.0688 3.13193 37.093 7.02283 40.9864C10.6553 44.6213 15.0662 46.8837 20.2123 47.7515C21.63 47.9905 24.854 48.0786 26.3839 47.92C36.8312 46.8371 45.3672 39.1852 47.5144 28.9783C47.9779 26.7747 48.1305 23.5867 47.881 21.3202C46.998 13.2986 42.074 6.21859 34.8211 2.54149C32.3853 1.3066 29.7758 0.495779 27.1485 0.157387C25.4867 -0.0565961 22.3351 -0.05162 20.6988 0.167664ZM30.8071 11.6151V14.1574H28.9638C26.8128 14.1574 26.6 14.2205 26.3267 14.9394C26.1868 15.3074 26.1573 15.7322 26.1817 17.0242L26.2124 18.6469L28.5648 18.6761L30.9171 18.7052L30.8599 19.1089C30.797 19.5531 30.3747 23.6284 30.3747 23.7917C30.3747 23.8521 29.5153 23.8937 28.2665 23.8937H26.1584V31.3042V38.7146H23.0772H19.9961V31.3042V23.8937H18.5366H17.0771V21.2974V18.701H18.5366H19.9961V16.8697C19.9961 14.6603 20.129 13.6098 20.5445 12.5347C21.1298 11.0201 22.301 9.90076 23.8135 9.40994C24.7655 9.10098 24.7294 9.10379 27.9152 9.08756L30.8071 9.07285V11.6151Z" fill="#1C1C1C"/>
</svg>
