<svg width="48" height="48" viewBox="0 0 48 48" fill="none" xmlns="http://www.w3.org/2000/svg">
<path fill-rule="evenodd" clip-rule="evenodd" d="M11.7646 0.196842C8.92891 0.645214 6.24104 2.03271 4.14326 4.13107C2.02724 6.24768 0.677872 8.87804 0.201758 11.8141C-0.0660414 13.4659 -0.0677907 34.3673 0.199758 36.1294C1.12637 42.2327 5.98899 46.9913 12.202 47.8749C13.3744 48.0417 34.6479 48.0417 35.8203 47.8749C39.1111 47.4069 42.3802 45.6848 44.4156 43.347C46.3167 41.1632 47.4727 38.6469 47.875 35.8169C48.0417 34.6441 48.0417 13.3648 47.875 12.192C47.2249 7.61805 44.5239 3.7417 40.5351 1.65758C38.9995 0.855338 37.713 0.423341 36.1642 0.189842C34.4579 -0.0674064 13.3974 -0.0614064 11.7646 0.196842ZM36.3845 4.27894C38.4044 4.88606 39.7779 5.67181 41.0583 6.95255C41.9449 7.83942 42.8924 9.25004 43.2589 10.2287C43.9776 12.1474 43.943 11.4508 43.943 24.0045C43.943 36.5581 43.9776 35.8615 43.2589 37.7803C42.4284 39.9979 39.9995 42.4278 37.785 43.2566C35.8663 43.9747 36.6203 43.9335 24.5735 43.9786C12.6391 44.0233 12.3875 44.0127 10.6279 43.3898C8.09689 42.494 5.65321 40.1565 4.76334 37.7803C4.04467 35.8615 4.07928 36.5581 4.07928 24.0045C4.07928 11.4508 4.04467 12.1474 4.76334 10.2287C5.63934 7.88967 8.03716 5.56006 10.4936 4.66144C12.2546 4.01719 12.134 4.02257 24.3235 4.04794C34.5068 4.06932 35.7673 4.09344 36.3845 4.27894ZM36.0077 8.16792C35.3944 8.3613 34.3483 9.44479 34.1602 10.0815C33.8141 11.2535 34.0581 12.1879 34.9413 13.0713C36.2055 14.3359 37.8093 14.3359 39.0736 13.0713C40.2948 11.8498 40.3312 10.2959 39.1692 9.00304C38.3604 8.1033 37.192 7.79455 36.0077 8.16792ZM21.9672 13.2044C17.5934 13.9948 13.9741 17.6564 13.2048 22.0691C11.8972 29.5694 18.4093 36.1329 25.8655 34.8295C30.1548 34.0798 33.5077 30.98 34.668 26.6919C35.0522 25.2714 35.0522 22.7375 34.668 21.317C33.1249 15.614 27.7239 12.164 21.9672 13.2044ZM25.3315 17.1381C26.565 17.3604 27.965 18.1169 28.931 19.0832C31.6766 21.8295 31.6734 26.1878 28.9239 28.9382C26.1858 31.677 21.8281 31.6633 19.0728 28.9073C15.7055 25.5391 16.6468 19.8764 20.9243 17.7702C22.4018 17.0426 23.7381 16.851 25.3315 17.1381Z" fill="white"/>
</svg>
