<svg width="48" height="48" viewBox="0 0 48 48" fill="none" xmlns="http://www.w3.org/2000/svg">
<path fill-rule="evenodd" clip-rule="evenodd" d="M21.7189 0.0582755C14.2061 0.839396 7.62774 4.92422 3.62796 11.2917C-0.939578 18.5631 -1.2152 27.9868 2.91976 35.511C4.79897 38.9306 7.49444 41.8568 10.8171 44.0845C13.0538 45.5842 16.4487 47.0035 19.0467 47.5251C21.0512 47.9275 21.8151 48.0005 24.0179 48C26.2365 47.9995 27.1455 47.9127 29.0136 47.523C37.2758 45.7994 44.1684 39.6151 46.8296 31.5378C47.6888 28.93 48 26.927 48 24.0046C48 21.1786 47.7042 19.1899 46.9171 16.725C45.7476 13.0622 43.8163 9.88231 41.0777 7.11081C37.3249 3.31295 32.6928 0.975595 27.3505 0.184142C26.1989 0.013471 22.8659 -0.0609215 21.7189 0.0582755ZM12.8653 7.94886C15.6264 8.87951 16.4462 12.3339 14.394 14.39C13.3539 15.432 11.8884 15.8027 10.5082 15.3729C7.69796 14.4977 6.79853 10.978 8.85818 8.91558C9.92958 7.84281 11.4571 7.47423 12.8653 7.94886ZM34.5864 18.2164C37.7065 18.8878 39.4055 20.8151 40.0246 24.3852C40.279 25.8521 40.3473 27.9094 40.3498 34.1725L40.3523 40.2544H36.9796H33.607L33.568 33.8437C33.5345 28.3498 33.5071 27.3412 33.3765 26.791C32.9034 24.7977 31.9333 23.9822 30.0259 23.9743C27.9381 23.9658 26.8237 24.8285 26.2464 26.9005C26.0521 27.5973 26.0445 27.8275 26.0115 33.9377L25.9773 40.2544H22.6038H19.2302V29.4055V18.5566H22.4689H25.7076V20.0126C25.7076 20.9206 25.7429 21.4685 25.8015 21.4685C25.8531 21.4685 25.8954 21.4313 25.8954 21.3858C25.8954 21.2058 26.772 20.1734 27.3143 19.7145C28.2559 18.918 29.3773 18.397 30.73 18.1277C31.5478 17.9649 33.6412 18.0131 34.5864 18.2164ZM15.0057 29.4055V40.2544H11.6262H8.24667V29.4055V18.5566H11.6262H15.0057V29.4055Z" fill="#1C1C1C"/>
</svg>
