<svg width="181" height="154" viewBox="0 0 181 154" fill="none" xmlns="http://www.w3.org/2000/svg">
<rect x="40.4053" y="39.905" width="130.476" height="111.957" rx="20" fill="#1C1C1C"/>
<rect x="51.4692" y="62.9996" width="80.178" height="97.8553" rx="8" transform="rotate(-48.6372 51.4692 62.9996)" fill="#73D676" stroke="black" stroke-width="4"/>
<path d="M71.2954 62.9323L107.175 22.1818" stroke="black" stroke-width="4" stroke-linecap="round"/>
<path d="M80.772 71.2764L116.651 30.5259" stroke="black" stroke-width="4" stroke-linecap="round"/>
<path d="M90.2485 79.6205L126.128 38.8701" stroke="black" stroke-width="4" stroke-linecap="round"/>
<path d="M99.7256 87.9645L135.605 47.214" stroke="black" stroke-width="4" stroke-linecap="round"/>
<path d="M109.202 96.3083L145.081 55.5579" stroke="black" stroke-width="4" stroke-linecap="round"/>
<path d="M118.679 104.652L154.559 63.902" stroke="black" stroke-width="4" stroke-linecap="round"/>
<path d="M119.359 54.2155H31.0047C16.473 54.2155 6.79219 69.223 12.7839 82.4619L38.8739 140.108C42.1126 147.264 49.2401 151.862 57.0947 151.862H145.946C160.539 151.862 170.219 136.738 164.107 123.486L137.52 65.8393C134.252 58.7536 127.162 54.2155 119.359 54.2155Z" fill="#F5487E" stroke="#1C1C1C" stroke-width="4"/>
</svg>
