<svg width="229" height="301" viewBox="0 0 229 301" fill="none" xmlns="http://www.w3.org/2000/svg">
<mask id="path-1-inside-1_511_792" fill="white">
<path fill-rule="evenodd" clip-rule="evenodd" d="M163.778 178.395L57.2836 63.5639L49.2109 219.968L84.9678 206.993L114.153 287.424L157.989 271.517L128.804 191.086L163.778 178.395Z"/>
</mask>
<path fill-rule="evenodd" clip-rule="evenodd" d="M163.778 178.395L57.2836 63.5639L49.2109 219.968L84.9678 206.993L114.153 287.424L157.989 271.517L128.804 191.086L163.778 178.395Z" fill="#73D676"/>
<path d="M57.2836 63.5639L60.2164 60.844L53.777 53.9004L53.2889 63.3578L57.2836 63.5639ZM163.778 178.395L165.142 182.155L170.812 180.098L166.711 175.675L163.778 178.395ZM49.2109 219.968L45.2162 219.762L44.9053 225.785L50.5753 223.728L49.2109 219.968ZM84.9678 206.993L88.7279 205.628L87.3635 201.868L83.6034 203.233L84.9678 206.993ZM114.153 287.424L110.393 288.788L111.758 292.548L115.518 291.184L114.153 287.424ZM157.989 271.517L159.354 275.277L163.114 273.913L161.75 270.153L157.989 271.517ZM128.804 191.086L127.439 187.326L123.679 188.691L125.044 192.451L128.804 191.086ZM54.3507 66.2839L160.845 181.115L166.711 175.675L60.2164 60.844L54.3507 66.2839ZM53.2056 220.174L61.2782 63.7701L53.2889 63.3578L45.2162 219.762L53.2056 220.174ZM83.6034 203.233L47.8465 216.208L50.5753 223.728L86.3322 210.753L83.6034 203.233ZM117.914 286.059L88.7279 205.628L81.2077 208.357L110.393 288.788L117.914 286.059ZM156.625 267.757L112.789 283.664L115.518 291.184L159.354 275.277L156.625 267.757ZM125.044 192.451L154.229 272.882L161.75 270.153L132.564 189.722L125.044 192.451ZM162.414 174.635L127.439 187.326L130.168 194.846L165.142 182.155L162.414 174.635Z" fill="black" mask="url(#path-1-inside-1_511_792)"/>
<mask id="path-3-inside-2_511_792" fill="white">
<path fill-rule="evenodd" clip-rule="evenodd" d="M181.796 157.007L75.3016 42.1751L67.229 198.579L102.986 185.604L132.172 266.035L176.008 250.129L146.822 169.697L181.796 157.007Z"/>
</mask>
<path fill-rule="evenodd" clip-rule="evenodd" d="M181.796 157.007L75.3016 42.1751L67.229 198.579L102.986 185.604L132.172 266.035L176.008 250.129L146.822 169.697L181.796 157.007Z" fill="#73D676"/>
<path d="M75.3016 42.1751L78.2345 39.4552L71.7951 32.5116L71.307 41.969L75.3016 42.1751ZM181.796 157.007L183.16 160.767L188.831 158.709L184.729 154.287L181.796 157.007ZM67.229 198.579L63.2343 198.373L62.9234 204.396L68.5934 202.339L67.229 198.579ZM102.986 185.604L106.746 184.24L105.382 180.479L101.621 181.844L102.986 185.604ZM132.172 266.035L128.411 267.4L129.776 271.16L133.536 269.795L132.172 266.035ZM176.008 250.129L177.372 253.889L181.132 252.524L179.768 248.764L176.008 250.129ZM146.822 169.697L145.457 165.937L141.697 167.302L143.062 171.062L146.822 169.697ZM72.3687 44.8951L178.863 159.726L184.729 154.287L78.2345 39.4552L72.3687 44.8951ZM71.2236 198.785L79.2963 42.3813L71.307 41.969L63.2343 198.373L71.2236 198.785ZM101.621 181.844L65.8645 194.819L68.5934 202.339L104.35 189.364L101.621 181.844ZM135.932 264.671L106.746 184.24L99.2257 186.968L128.411 267.4L135.932 264.671ZM174.643 246.369L130.807 262.275L133.536 269.795L177.372 253.889L174.643 246.369ZM143.062 171.062L172.247 251.493L179.768 248.764L150.582 168.333L143.062 171.062ZM180.432 153.246L145.457 165.937L148.186 173.458L183.16 160.767L180.432 153.246Z" fill="black" mask="url(#path-3-inside-2_511_792)"/>
<mask id="path-5-inside-3_511_792" fill="white">
<path fill-rule="evenodd" clip-rule="evenodd" d="M199.814 135.618L93.3198 20.7862L85.2472 177.19L121.004 164.215L150.19 244.646L194.026 228.74L164.84 148.309L199.814 135.618Z"/>
</mask>
<path fill-rule="evenodd" clip-rule="evenodd" d="M199.814 135.618L93.3198 20.7862L85.2472 177.19L121.004 164.215L150.19 244.646L194.026 228.74L164.84 148.309L199.814 135.618Z" fill="white"/>
<path d="M93.3198 20.7862L96.2527 18.0663L89.8133 11.1227L89.3251 20.58L93.3198 20.7862ZM199.814 135.618L201.179 139.378L206.849 137.32L202.747 132.898L199.814 135.618ZM85.2472 177.19L81.2525 176.984L80.9416 183.008L86.6116 180.95L85.2472 177.19ZM121.004 164.215L124.764 162.851L123.4 159.091L119.64 160.455L121.004 164.215ZM150.19 244.646L146.43 246.011L147.794 249.771L151.554 248.406L150.19 244.646ZM194.026 228.74L195.39 232.5L199.15 231.135L197.786 227.375L194.026 228.74ZM164.84 148.309L163.476 144.548L159.715 145.913L161.08 149.673L164.84 148.309ZM90.3869 23.5062L196.881 138.338L202.747 132.898L96.2527 18.0663L90.3869 23.5062ZM89.2418 177.396L97.3145 20.9924L89.3251 20.58L81.2525 176.984L89.2418 177.396ZM119.64 160.455L83.8827 173.43L86.6116 180.95L122.368 167.975L119.64 160.455ZM153.95 243.282L124.764 162.851L117.244 165.58L146.43 246.011L153.95 243.282ZM192.661 224.98L148.825 240.886L151.554 248.406L195.39 232.5L192.661 224.98ZM161.08 149.673L190.265 230.104L197.786 227.375L168.6 146.944L161.08 149.673ZM198.45 131.857L163.476 144.548L166.204 152.069L201.179 139.378L198.45 131.857Z" fill="black" mask="url(#path-5-inside-3_511_792)"/>
</svg>
